<mxfile host="app.diagrams.net" agent="Mozilla/5.0 (Windows NT 10.0; Win64; x64) AppleWebKit/537.36 (KHTML, like Gecko) Chrome/130.0.0.0 Safari/537.36 Edg/130.0.0.0" version="24.7.17">
  <diagram name="Page-1" id="0nlb1dliOWBwUxGK6tL_">
    <mxGraphModel dx="461" dy="240" grid="0" gridSize="10" guides="1" tooltips="1" connect="1" arrows="1" fold="1" page="1" pageScale="1" pageWidth="850" pageHeight="1100" math="0" shadow="0">
      <root>
        <mxCell id="0" />
        <mxCell id="1" parent="0" />
        <mxCell id="mXgSpQSUyrAD3igTiRfM-4" value="Set" style="swimlane;fontStyle=0;childLayout=stackLayout;horizontal=1;startSize=20;fillColor=#ffffff;horizontalStack=0;resizeParent=1;resizeParentMax=0;resizeLast=0;collapsible=0;marginBottom=0;swimlaneFillColor=#ffffff;" parent="1" vertex="1">
          <mxGeometry x="850" y="212" width="160" height="100" as="geometry" />
        </mxCell>
        <mxCell id="bROvHSK_g-5JyAQyVbSG-3" value="&lt;u&gt;ID&lt;/u&gt;&lt;div&gt;Name&lt;/div&gt;&lt;div&gt;Release Date&lt;/div&gt;" style="text;strokeColor=none;align=left;fillColor=none;html=1;verticalAlign=middle;whiteSpace=wrap;rounded=0;" vertex="1" parent="mXgSpQSUyrAD3igTiRfM-4">
          <mxGeometry y="20" width="160" height="80" as="geometry" />
        </mxCell>
        <mxCell id="mXgSpQSUyrAD3igTiRfM-5" value="Deck" style="swimlane;fontStyle=0;childLayout=stackLayout;horizontal=1;startSize=20;fillColor=#ffffff;horizontalStack=0;resizeParent=1;resizeParentMax=0;resizeLast=0;collapsible=0;marginBottom=0;swimlaneFillColor=#ffffff;" parent="1" vertex="1">
          <mxGeometry x="850" y="360" width="160" height="120" as="geometry" />
        </mxCell>
        <mxCell id="bROvHSK_g-5JyAQyVbSG-4" value="&lt;u&gt;ID&lt;/u&gt;&lt;div&gt;Owner&lt;/div&gt;&lt;div&gt;Type&lt;/div&gt;&lt;div&gt;&lt;br&gt;&lt;/div&gt;" style="text;strokeColor=none;align=left;fillColor=none;html=1;verticalAlign=middle;whiteSpace=wrap;rounded=0;" vertex="1" parent="mXgSpQSUyrAD3igTiRfM-5">
          <mxGeometry y="20" width="160" height="100" as="geometry" />
        </mxCell>
        <mxCell id="mXgSpQSUyrAD3igTiRfM-6" value="Game" style="swimlane;fontStyle=0;childLayout=stackLayout;horizontal=1;startSize=20;fillColor=#ffffff;horizontalStack=0;resizeParent=1;resizeParentMax=0;resizeLast=0;collapsible=0;marginBottom=0;swimlaneFillColor=#ffffff;verticalAlign=top;" parent="1" vertex="1">
          <mxGeometry x="840" y="50" width="160" height="110" as="geometry" />
        </mxCell>
        <mxCell id="mXgSpQSUyrAD3igTiRfM-9" value="&lt;div style=&quot;&quot;&gt;&lt;u&gt;ID&lt;/u&gt;&lt;/div&gt;&lt;div style=&quot;&quot;&gt;Type&lt;/div&gt;&lt;div style=&quot;&quot;&gt;Date&amp;nbsp;&lt;br&gt;Location&lt;/div&gt;" style="text;strokeColor=none;align=left;fillColor=none;html=1;verticalAlign=middle;whiteSpace=wrap;rounded=0;" parent="mXgSpQSUyrAD3igTiRfM-6" vertex="1">
          <mxGeometry y="20" width="160" height="90" as="geometry" />
        </mxCell>
        <mxCell id="bROvHSK_g-5JyAQyVbSG-5" value="User" style="swimlane;fontStyle=0;childLayout=stackLayout;horizontal=1;startSize=26;fillColor=none;horizontalStack=0;resizeParent=1;resizeParentMax=0;resizeLast=0;collapsible=1;marginBottom=0;whiteSpace=wrap;html=1;" vertex="1" parent="1">
          <mxGeometry x="510" y="832" width="140" height="130" as="geometry">
            <mxRectangle x="80" y="280" width="100" height="30" as="alternateBounds" />
          </mxGeometry>
        </mxCell>
        <mxCell id="bROvHSK_g-5JyAQyVbSG-6" value="&lt;u&gt;ID&lt;/u&gt;" style="text;strokeColor=none;fillColor=none;align=left;verticalAlign=top;spacingLeft=4;spacingRight=4;overflow=hidden;rotatable=0;points=[[0,0.5],[1,0.5]];portConstraint=eastwest;whiteSpace=wrap;html=1;" vertex="1" parent="bROvHSK_g-5JyAQyVbSG-5">
          <mxGeometry y="26" width="140" height="26" as="geometry" />
        </mxCell>
        <mxCell id="bROvHSK_g-5JyAQyVbSG-7" value="First" style="text;strokeColor=none;fillColor=none;align=left;verticalAlign=top;spacingLeft=4;spacingRight=4;overflow=hidden;rotatable=0;points=[[0,0.5],[1,0.5]];portConstraint=eastwest;whiteSpace=wrap;html=1;" vertex="1" parent="bROvHSK_g-5JyAQyVbSG-5">
          <mxGeometry y="52" width="140" height="26" as="geometry" />
        </mxCell>
        <mxCell id="bROvHSK_g-5JyAQyVbSG-8" value="Last" style="text;strokeColor=none;fillColor=none;align=left;verticalAlign=top;spacingLeft=4;spacingRight=4;overflow=hidden;rotatable=0;points=[[0,0.5],[1,0.5]];portConstraint=eastwest;whiteSpace=wrap;html=1;" vertex="1" parent="bROvHSK_g-5JyAQyVbSG-5">
          <mxGeometry y="78" width="140" height="26" as="geometry" />
        </mxCell>
        <mxCell id="bROvHSK_g-5JyAQyVbSG-9" value="Role" style="text;strokeColor=none;fillColor=none;align=left;verticalAlign=top;spacingLeft=4;spacingRight=4;overflow=hidden;rotatable=0;points=[[0,0.5],[1,0.5]];portConstraint=eastwest;whiteSpace=wrap;html=1;" vertex="1" parent="bROvHSK_g-5JyAQyVbSG-5">
          <mxGeometry y="104" width="140" height="26" as="geometry" />
        </mxCell>
        <mxCell id="bROvHSK_g-5JyAQyVbSG-10" value="Card Definition" style="swimlane;fontStyle=0;childLayout=stackLayout;horizontal=1;startSize=26;fillColor=none;horizontalStack=0;resizeParent=1;resizeParentMax=0;resizeLast=0;collapsible=1;marginBottom=0;whiteSpace=wrap;html=1;" vertex="1" parent="1">
          <mxGeometry x="1030" y="580" width="140" height="156" as="geometry">
            <mxRectangle x="80" y="280" width="100" height="30" as="alternateBounds" />
          </mxGeometry>
        </mxCell>
        <mxCell id="bROvHSK_g-5JyAQyVbSG-11" value="&lt;u&gt;Number&lt;/u&gt;" style="text;strokeColor=none;fillColor=none;align=left;verticalAlign=top;spacingLeft=4;spacingRight=4;overflow=hidden;rotatable=0;points=[[0,0.5],[1,0.5]];portConstraint=eastwest;whiteSpace=wrap;html=1;" vertex="1" parent="bROvHSK_g-5JyAQyVbSG-10">
          <mxGeometry y="26" width="140" height="26" as="geometry" />
        </mxCell>
        <mxCell id="bROvHSK_g-5JyAQyVbSG-12" value="Set" style="text;strokeColor=none;fillColor=none;align=left;verticalAlign=top;spacingLeft=4;spacingRight=4;overflow=hidden;rotatable=0;points=[[0,0.5],[1,0.5]];portConstraint=eastwest;whiteSpace=wrap;html=1;" vertex="1" parent="bROvHSK_g-5JyAQyVbSG-10">
          <mxGeometry y="52" width="140" height="26" as="geometry" />
        </mxCell>
        <mxCell id="bROvHSK_g-5JyAQyVbSG-13" value="&lt;div&gt;&lt;span style=&quot;background-color: initial;&quot;&gt;Illustrator&lt;/span&gt;&lt;br&gt;&lt;/div&gt;&lt;div&gt;&lt;span style=&quot;background-color: initial;&quot;&gt;&lt;br&gt;&lt;/span&gt;&lt;/div&gt;" style="text;strokeColor=none;fillColor=none;align=left;verticalAlign=top;spacingLeft=4;spacingRight=4;overflow=hidden;rotatable=0;points=[[0,0.5],[1,0.5]];portConstraint=eastwest;whiteSpace=wrap;html=1;" vertex="1" parent="bROvHSK_g-5JyAQyVbSG-10">
          <mxGeometry y="78" width="140" height="26" as="geometry" />
        </mxCell>
        <mxCell id="bROvHSK_g-5JyAQyVbSG-15" value="&lt;div&gt;Color&lt;/div&gt;&lt;div&gt;&lt;br&gt;&lt;/div&gt;" style="text;strokeColor=none;fillColor=none;align=left;verticalAlign=top;spacingLeft=4;spacingRight=4;overflow=hidden;rotatable=0;points=[[0,0.5],[1,0.5]];portConstraint=eastwest;whiteSpace=wrap;html=1;" vertex="1" parent="bROvHSK_g-5JyAQyVbSG-10">
          <mxGeometry y="104" width="140" height="26" as="geometry" />
        </mxCell>
        <mxCell id="bROvHSK_g-5JyAQyVbSG-18" value="&lt;div&gt;Type&lt;/div&gt;&lt;div&gt;&lt;br&gt;&lt;/div&gt;" style="text;strokeColor=none;fillColor=none;align=left;verticalAlign=top;spacingLeft=4;spacingRight=4;overflow=hidden;rotatable=0;points=[[0,0.5],[1,0.5]];portConstraint=eastwest;whiteSpace=wrap;html=1;" vertex="1" parent="bROvHSK_g-5JyAQyVbSG-10">
          <mxGeometry y="130" width="140" height="26" as="geometry" />
        </mxCell>
        <mxCell id="bROvHSK_g-5JyAQyVbSG-21" style="edgeStyle=orthogonalEdgeStyle;rounded=0;orthogonalLoop=1;jettySize=auto;html=1;exitX=0;exitY=0.5;exitDx=0;exitDy=0;entryX=1;entryY=0.5;entryDx=0;entryDy=0;startArrow=none;startFill=0;endArrow=none;endFill=0;" edge="1" parent="1" source="bROvHSK_g-5JyAQyVbSG-19" target="bROvHSK_g-5JyAQyVbSG-7">
          <mxGeometry relative="1" as="geometry" />
        </mxCell>
        <mxCell id="bROvHSK_g-5JyAQyVbSG-46" style="edgeStyle=orthogonalEdgeStyle;rounded=0;orthogonalLoop=1;jettySize=auto;html=1;entryX=0;entryY=0.5;entryDx=0;entryDy=0;" edge="1" parent="1" source="bROvHSK_g-5JyAQyVbSG-19" target="bROvHSK_g-5JyAQyVbSG-38">
          <mxGeometry relative="1" as="geometry" />
        </mxCell>
        <mxCell id="bROvHSK_g-5JyAQyVbSG-19" value="owns" style="rhombus;whiteSpace=wrap;html=1;" vertex="1" parent="1">
          <mxGeometry x="720" y="857" width="80" height="80" as="geometry" />
        </mxCell>
        <mxCell id="bROvHSK_g-5JyAQyVbSG-47" style="edgeStyle=orthogonalEdgeStyle;rounded=0;orthogonalLoop=1;jettySize=auto;html=1;exitX=0.5;exitY=0;exitDx=0;exitDy=0;entryX=0;entryY=0.5;entryDx=0;entryDy=0;" edge="1" parent="1" source="bROvHSK_g-5JyAQyVbSG-48" target="bROvHSK_g-5JyAQyVbSG-12">
          <mxGeometry relative="1" as="geometry">
            <Array as="points">
              <mxPoint x="930" y="645" />
            </Array>
          </mxGeometry>
        </mxCell>
        <mxCell id="bROvHSK_g-5JyAQyVbSG-36" value="Card Instance" style="swimlane;fontStyle=0;childLayout=stackLayout;horizontal=1;startSize=26;fillColor=none;horizontalStack=0;resizeParent=1;resizeParentMax=0;resizeLast=0;collapsible=1;marginBottom=0;whiteSpace=wrap;html=1;" vertex="1" parent="1">
          <mxGeometry x="860" y="832" width="140" height="130" as="geometry">
            <mxRectangle x="80" y="280" width="100" height="30" as="alternateBounds" />
          </mxGeometry>
        </mxCell>
        <mxCell id="bROvHSK_g-5JyAQyVbSG-38" value="Card" style="text;strokeColor=none;fillColor=none;align=left;verticalAlign=top;spacingLeft=4;spacingRight=4;overflow=hidden;rotatable=0;points=[[0,0.5],[1,0.5]];portConstraint=eastwest;whiteSpace=wrap;html=1;fontStyle=4" vertex="1" parent="bROvHSK_g-5JyAQyVbSG-36">
          <mxGeometry y="26" width="140" height="26" as="geometry" />
        </mxCell>
        <mxCell id="bROvHSK_g-5JyAQyVbSG-45" value="&lt;div&gt;Owner&lt;/div&gt;" style="text;strokeColor=none;fillColor=none;align=left;verticalAlign=top;spacingLeft=4;spacingRight=4;overflow=hidden;rotatable=0;points=[[0,0.5],[1,0.5]];portConstraint=eastwest;whiteSpace=wrap;html=1;fontStyle=4" vertex="1" parent="bROvHSK_g-5JyAQyVbSG-36">
          <mxGeometry y="52" width="140" height="26" as="geometry" />
        </mxCell>
        <mxCell id="bROvHSK_g-5JyAQyVbSG-50" value="Card" style="text;strokeColor=none;fillColor=none;align=left;verticalAlign=top;spacingLeft=4;spacingRight=4;overflow=hidden;rotatable=0;points=[[0,0.5],[1,0.5]];portConstraint=eastwest;whiteSpace=wrap;html=1;" vertex="1" parent="bROvHSK_g-5JyAQyVbSG-36">
          <mxGeometry y="78" width="140" height="26" as="geometry" />
        </mxCell>
        <mxCell id="bROvHSK_g-5JyAQyVbSG-44" value="&lt;div&gt;Condition&lt;/div&gt;&lt;div&gt;&lt;br&gt;&lt;/div&gt;" style="text;strokeColor=none;fillColor=none;align=left;verticalAlign=top;spacingLeft=4;spacingRight=4;overflow=hidden;rotatable=0;points=[[0,0.5],[1,0.5]];portConstraint=eastwest;whiteSpace=wrap;html=1;" vertex="1" parent="bROvHSK_g-5JyAQyVbSG-36">
          <mxGeometry y="104" width="140" height="26" as="geometry" />
        </mxCell>
        <mxCell id="bROvHSK_g-5JyAQyVbSG-49" value="" style="edgeStyle=orthogonalEdgeStyle;rounded=0;orthogonalLoop=1;jettySize=auto;html=1;exitX=0.5;exitY=0;exitDx=0;exitDy=0;entryX=0.5;entryY=1;entryDx=0;entryDy=0;" edge="1" parent="1" source="bROvHSK_g-5JyAQyVbSG-36" target="bROvHSK_g-5JyAQyVbSG-48">
          <mxGeometry relative="1" as="geometry">
            <mxPoint x="930" y="832" as="sourcePoint" />
            <mxPoint x="1030" y="645" as="targetPoint" />
            <Array as="points" />
          </mxGeometry>
        </mxCell>
        <mxCell id="bROvHSK_g-5JyAQyVbSG-48" value="card_def_inst" style="rhombus;whiteSpace=wrap;html=1;" vertex="1" parent="1">
          <mxGeometry x="890" y="683" width="80" height="80" as="geometry" />
        </mxCell>
        <mxCell id="bROvHSK_g-5JyAQyVbSG-58" value="" style="edgeStyle=orthogonalEdgeStyle;rounded=0;orthogonalLoop=1;jettySize=auto;html=1;exitX=0;exitY=0.5;exitDx=0;exitDy=0;entryX=1.019;entryY=0.256;entryDx=0;entryDy=0;entryPerimeter=0;" edge="1" parent="1" source="bROvHSK_g-5JyAQyVbSG-51" target="bROvHSK_g-5JyAQyVbSG-50">
          <mxGeometry relative="1" as="geometry" />
        </mxCell>
        <mxCell id="bROvHSK_g-5JyAQyVbSG-51" value="card_inst_trans" style="shape=rhombus;double=1;perimeter=rhombusPerimeter;whiteSpace=wrap;html=1;align=center;" vertex="1" parent="1">
          <mxGeometry x="1050" y="867" width="120" height="60" as="geometry" />
        </mxCell>
        <mxCell id="bROvHSK_g-5JyAQyVbSG-60" value="Transaction" style="swimlane;fontStyle=0;childLayout=stackLayout;horizontal=1;startSize=26;fillColor=none;horizontalStack=0;resizeParent=1;resizeParentMax=0;resizeLast=0;collapsible=1;marginBottom=0;whiteSpace=wrap;html=1;strokeColor=default;" vertex="1" parent="1">
          <mxGeometry x="1240" y="850" width="170" height="103" as="geometry">
            <mxRectangle x="80" y="280" width="100" height="30" as="alternateBounds" />
          </mxGeometry>
        </mxCell>
        <mxCell id="bROvHSK_g-5JyAQyVbSG-61" value="Buyer" style="text;strokeColor=none;fillColor=none;align=left;verticalAlign=top;spacingLeft=4;spacingRight=4;overflow=hidden;rotatable=0;points=[[0,0.5],[1,0.5]];portConstraint=eastwest;whiteSpace=wrap;html=1;fontStyle=0;fillStyle=hatch;perimeterSpacing=4;dashed=1;dashPattern=8 8;strokeWidth=11;" vertex="1" parent="bROvHSK_g-5JyAQyVbSG-60">
          <mxGeometry y="26" width="170" height="26" as="geometry" />
        </mxCell>
        <mxCell id="bROvHSK_g-5JyAQyVbSG-62" value="&lt;div style=&quot;padding-left: 0px; margin-bottom: 0px; text-decoration-line: underline; text-decoration-style: dashed;&quot;&gt;Seller&lt;/div&gt;" style="text;strokeColor=none;fillColor=none;align=left;verticalAlign=top;spacingLeft=4;spacingRight=4;overflow=hidden;rotatable=0;points=[[0,0.5],[1,0.5]];portConstraint=eastwest;whiteSpace=wrap;html=1;fontStyle=0" vertex="1" parent="bROvHSK_g-5JyAQyVbSG-60">
          <mxGeometry y="52" width="170" height="25" as="geometry" />
        </mxCell>
        <mxCell id="bROvHSK_g-5JyAQyVbSG-63" value="Price" style="text;strokeColor=none;fillColor=none;align=left;verticalAlign=top;spacingLeft=4;spacingRight=4;overflow=hidden;rotatable=0;points=[[0,0.5],[1,0.5]];portConstraint=eastwest;whiteSpace=wrap;html=1;" vertex="1" parent="bROvHSK_g-5JyAQyVbSG-60">
          <mxGeometry y="77" width="170" height="26" as="geometry" />
        </mxCell>
      </root>
    </mxGraphModel>
  </diagram>
</mxfile>
